# xmcd
#
# Track frame offsets:
#	150
#	75801
#	125752
#	149697
#	172997
#	214617
#
# Disc length: 3116 seconds
#
# Revision: 1
# Processed by: cddbd v1.5.2PL0 Copyright (c) Steve Scherf et al.
# Submitted via: audiograbber 1.83.01
#
DISCID=4c0c2a06
DTITLE=Grateful Dead - 74-06-30 Springfield Civic Centre Arena, Springfield MA
DYEAR=1900
DGENRE=
TTITLE0=Phil and Ned - Seastones
TTITLE1=China Cat Sunflower
TTITLE2=I Know You Rider
TTITLE3=Big River
TTITLE4=Scarlet Begonias
TTITLE5=El Paso
EXTD=
EXTT0=
EXTT1=
EXTT2=
EXTT3=
EXTT4=
EXTT5=
PLAYORDER=
